<svg xmlns="http://www.w3.org/2000/svg" width="1000" height="623">
    <svg viewBox="0 0 396 247" data-background-color="#444444" height="623" width="1000" xmlns="http://www.w3.org/2000/svg" xmlns:xlink="http://www.w3.org/1999/xlink" transform="translate(-.606 .252)">
        <svg viewBox="0 0 395.52 247.2" height="247.2" width="395.52" transform="translate(.24 -.1)">
            <svg/>
            <svg viewBox="0 0 395.52 247.2" height="247.2" width="395.52">
                <svg viewBox="0 0 210.058 152.77" height="152.77" width="210.058" transform="translate(92.73 47.215)">
                    <svg viewBox="0 0 210.058 152.77" height="152.77" width="210.058">
                        <svg viewBox="0 0 210.058 152.77" height="152.77" width="210.058">
                            <svg viewBox="0 0 210.058 152.77" height="152.77" width="210.058">
                                <svg viewBox="0 0 210.058 152.77" height="152.77" width="210.058">
                                    <svg viewBox="0 0 210.058 152.77" height="152.77" width="210.058">
                                        <svg width="210.058" viewBox="3.7 -37 51.7 37.6" height="152.77" data-palette-color="#ffffff">
                                            <path d="M7.2-34.9H24v25.85q0 2.2-.75 4-.75 1.8-2.12 3.05-1.38 1.25-3.28 1.92-1.9.68-4.15.68-4 0-6.6-2.08Q4.5-3.55 3.7-7.3l4-.85q.25 1.05.68 1.97.42.93 1.15 1.6.72.68 1.77 1.08t2.5.4q2.85 0 4.43-1.63Q19.8-6.35 19.8-9.8v-21.45H7.2v-3.65ZM34.9 0v-37h4v15.4h.2q.4-.95 1-1.83.6-.87 1.47-1.52.88-.65 2.08-1.05 1.2-.4 2.8-.4 4.05 0 6.5 2.57 2.45 2.58 2.45 7.28V0h-4v-15.85q0-3.55-1.55-5.28-1.55-1.72-4.55-1.72-1.2 0-2.35.3-1.15.3-2.05.9-.9.6-1.45 1.55-.55.95-.55 2.2V0h-4Z" fill="#fff" class="wordmark-text-0" data-fill-palette-color="primary"/>
                                        </svg>
                                    </svg>
                                </svg>
                            </svg>
                        </svg>
                    </svg>
                </svg>
                <path d="M275.032 41.215V0h-247.2v247.2h247.2v-41.215h-13.777v27.438H41.609V13.777h219.646v27.438Z" fill="#fff" stroke="transparent" data-fill-palette-color="primary"/>
            </svg>
        </svg>
    </svg>
</svg>
