<svg xmlns="http://www.w3.org/2000/svg" version="1.1" xmlns:xlink="http://www.w3.org/1999/xlink" xmlns:svgjs="http://svgjs.dev/svgjs" width="1000" height="623" viewBox="0 0 1000 623"><g transform="matrix(1,0,0,1,-0.6060606060606233,0.2522267206477409)"><svg viewBox="0 0 396 247" data-background-color="#444444" preserveAspectRatio="xMidYMid meet" height="623" width="1000" xmlns="http://www.w3.org/2000/svg" xmlns:xlink="http://www.w3.org/1999/xlink"><g id="tight-bounds" transform="matrix(1,0,0,1,0.2400000000000091,-0.09999999999999432)"><svg viewBox="0 0 395.52 247.2" height="247.2" width="395.52"><g><svg></svg></g><g><svg viewBox="0 0 395.52 247.2" height="247.2" width="395.52"><g transform="matrix(1,0,0,1,92.73089999999999,47.215199999999996)"><svg viewBox="0 0 210.0582 152.7696" height="152.7696" width="210.0582"><g><svg viewBox="0 0 210.0582 152.7696" height="152.7696" width="210.0582"><g><svg viewBox="0 0 210.0582 152.7696" height="152.7696" width="210.0582"><g><svg viewBox="0 0 210.0582 152.7696" height="152.7696" width="210.0582"><g id="textblocktransform"><svg viewBox="0 0 210.0582 152.7696" height="152.7696" width="210.0582" id="textblock"><g><svg viewBox="0 0 210.0582 152.7696" height="152.7696" width="210.0582"><g transform="matrix(1,0,0,1,0,0)"><svg width="210.0582" viewBox="3.700000047683716 -37 51.70000076293945 37.599998474121094" height="152.7696" data-palette-color="#ffffff"><path d="M7.2-34.9L24-34.9 24-9.05Q24-6.85 23.25-5.05 22.5-3.25 21.13-2 19.75-0.75 17.85-0.08 15.95 0.6 13.7 0.6L13.7 0.6Q9.7 0.6 7.1-1.48 4.5-3.55 3.7-7.3L3.7-7.3 7.7-8.15Q7.95-7.1 8.38-6.18 8.8-5.25 9.53-4.58 10.25-3.9 11.3-3.5 12.35-3.1 13.8-3.1L13.8-3.1Q16.65-3.1 18.23-4.73 19.8-6.35 19.8-9.8L19.8-9.8 19.8-31.25 7.2-31.25 7.2-34.9ZM34.9 0L34.9-37 38.9-37 38.9-21.6 39.1-21.6Q39.5-22.55 40.1-23.43 40.7-24.3 41.57-24.95 42.45-25.6 43.65-26 44.85-26.4 46.45-26.4L46.45-26.4Q50.5-26.4 52.95-23.83 55.4-21.25 55.4-16.55L55.4-16.55 55.4 0 51.4 0 51.4-15.85Q51.4-19.4 49.85-21.13 48.3-22.85 45.3-22.85L45.3-22.85Q44.1-22.85 42.95-22.55 41.8-22.25 40.9-21.65 40-21.05 39.45-20.1 38.9-19.15 38.9-17.9L38.9-17.9 38.9 0 34.9 0Z" opacity="1" transform="matrix(1,0,0,1,0,0)" fill="#ffffff" class="wordmark-text-0" data-fill-palette-color="primary" id="text-0"></path></svg></g></svg></g></svg></g></svg></g></svg></g></svg></g></svg></g><path d="M275.032 41.215L275.032 0 27.832 0 27.832 247.2 275.032 247.2 275.032 205.985 261.255 205.985 261.255 233.423 41.609 233.423 41.609 13.777 261.255 13.777 261.255 41.215Z" fill="#ffffff" stroke="transparent" data-fill-palette-color="primary"></path></svg></g><defs></defs></svg><rect width="395.52" height="247.2" fill="none" stroke="none" visibility="hidden"></rect></g></svg></g></svg>